<?xml version="1.0" ?><svg data-name="Capa 1" id="Capa_1" viewBox="0 0 20 19.84" xmlns="http://www.w3.org/2000/svg"><path d="M15.71,10.4c0-.24,0-.49,0-.73a21.41,21.41,0,0,0-.26-3.49h0a1.94,1.94,0,0,0-1.24-1.46,29.59,29.59,0,0,0-4.78-.32,30.8,30.8,0,0,0-4.8.31A2,2,0,0,0,3.43,6.18a22.51,22.51,0,0,0-.25,3.47,22.76,22.76,0,0,0,.25,3.49A2,2,0,0,0,4.67,14.6a29.7,29.7,0,0,0,4.79.32,30.93,30.93,0,0,0,4.8-.31,2,2,0,0,0,1.22-1.47,22.51,22.51,0,0,0,.23-2.72h0ZM4,6.27A1.42,1.42,0,0,1,4.83,5.2a28.94,28.94,0,0,1,4.63-.28,27.52,27.52,0,0,1,4.61.29A1.4,1.4,0,0,1,15,6.27a20.32,20.32,0,0,1,.24,3.4c0,.16,0,.32,0,.48H3.73c0-.17,0-.33,0-.5A22.42,22.42,0,0,1,4,6.27Zm11.09,6H3.87c-.06-.53-.1-1.07-.12-1.6H15.17C15.15,11.22,15.11,11.75,15.05,12.28Zm-1,1.83a28.89,28.89,0,0,1-4.62.28,28.62,28.62,0,0,1-4.61-.29,1.42,1.42,0,0,1-.89-1l0-.24H15l0,.24A1.42,1.42,0,0,1,14.08,14.11Z"/><path d="M12.42,11.76h1.17a.3.3,0,0,0,.3-.3.29.29,0,0,0-.3-.3H12.42a.3.3,0,0,0-.3.3A.31.31,0,0,0,12.42,11.76Z"/><path d="M12.4,8.31h1.34A.31.31,0,0,0,14,8a.3.3,0,0,0-.3-.3H12.4a.3.3,0,0,0-.3.3A.31.31,0,0,0,12.4,8.31Z"/><path d="M10.07,8.31H11.4a.3.3,0,0,0,.3-.3.29.29,0,0,0-.3-.3H10.07a.29.29,0,0,0-.3.3A.3.3,0,0,0,10.07,8.31Z"/><path d="M7.73,8.31H9.07a.31.31,0,0,0,.3-.3.3.3,0,0,0-.3-.3H7.73a.3.3,0,0,0-.3.3A.31.31,0,0,0,7.73,8.31Z"/><path d="M5.4,8.31H6.73A.3.3,0,0,0,7,8a.29.29,0,0,0-.3-.3H5.4a.29.29,0,0,0-.3.3A.3.3,0,0,0,5.4,8.31Z"/></svg>