<?xml version="1.0" ?><svg enable-background="new 0 0 32 32" id="Layer_3" version="1.1" viewBox="0 0 32 32" xml:space="preserve" xmlns="http://www.w3.org/2000/svg" xmlns:xlink="http://www.w3.org/1999/xlink"><g><path d="M8.049,30h10.902c2.107,0,3.821-1.714,3.821-3.821V18.5h4c0.553,0,1-0.448,1-1V10c0-0.552-0.447-1-1-1h-4V5.821   C22.772,3.714,21.059,2,18.951,2H15.5h-4H8.049C5.941,2,4.228,3.714,4.228,5.821v20.357C4.228,28.286,5.941,30,8.049,30z    M25.772,16.5h-3.5c-0.266,0-0.52,0.105-0.707,0.293l-0.499,0.499c-0.001,0.001-0.001,0.001-0.002,0.002l-1.292,1.292V17.5   c0-0.552-0.447-1-1-1h-5V11h12V16.5z M14.5,4c0,0.551-0.448,1-1,1s-1-0.449-1-1H14.5z M6.228,5.821C6.228,4.817,7.045,4,8.049,4   H10.5c0,1.654,1.346,3,3,3s3-1.346,3-3h2.451c1.004,0,1.821,0.817,1.821,1.821V9h-8c-0.553,0-1,0.448-1,1v7.5c0,0.552,0.447,1,1,1   h5V21c0,0.404,0.243,0.769,0.617,0.924C18.514,21.975,18.644,22,18.772,22c0.26,0,0.516-0.102,0.707-0.293l1.293-1.293v5.765   c0,1.004-0.817,1.821-1.821,1.821H8.049c-1.004,0-1.821-0.817-1.821-1.821V5.821z"/><circle cx="13.5" cy="25.5" r="1"/></g></svg>